# xmcd CD database file
#
# Track frame offsets:
#	150
#	13108
#	26772
#	42710
#	58795
#	74908
#	89857
#	108799
#	125637
#	141436
#
# Disc length: 2140 seconds
#
# Revision: 1
# Processed by: cddbd v1.4PL0 Copyright (c) Steve Scherf et al.
# Submitted via: CDex 1.40Release
#
DISCID=a2085a0a
DTITLE=Alabama - In The Mood
DYEAR=2003
DGENRE=Country
TTITLE0=Here We Are
TTITLE1=Face To Face
TTITLE2=Take Me Down
TTITLE3=In Pictures
TTITLE4=Close Enough To Perfect
TTITLE5=Forever's As Far As I'll Go
TTITLE6=Love In The First Degree
TTITLE7=There's No Way
TTITLE8=God Must Have Spent A Little More Time On You
TTITLE9=Once Upon A Lifetime
EXTD=YEAR: 2003 ID3G: 2
EXTT0=
EXTT1=
EXTT2=
EXTT3=
EXTT4=
EXTT5=
EXTT6=
EXTT7=
EXTT8=
EXTT9=
PLAYORDER=
